<svg xmlns="http://www.w3.org/2000/svg" viewBox="0 0 256 256" role="img" aria-label="Korpen (raven) favicon silhouette">
  <path fill="#1a1a2e" d="
    M50 182
    C78 166 98 140 116 116
    C136 90 158 70 184 58
    C206 48 230 54 240 74
    C250 96 236 114 216 120
    C234 124 246 140 242 158
    C238 176 220 186 202 180
    C198 206 186 224 166 236
    C142 250 108 250 78 238
    L78 246
    C78 252 73 256 67 256
    C61 256 56 252 56 246
    L56 224
    C46 214 38 204 32 192
    C28 184 36 176 50 182
    Z
    M176 108
    L166 124 L176 140 L160 150 L172 162 L152 170
    C166 164 176 154 180 140
    C184 126 184 116 176 108
    Z
    M78 238 L52 248 L62 226 Z
  "/>
  <circle cx="204" cy="84" r="6.5" fill="#4ecdc4"/>
</svg>