<svg xmlns="http://www.w3.org/2000/svg" viewBox="0 0 512 512" role="img" aria-label="Korpen (raven) silhouette">
  <!-- Single-color silhouette -->
  <path fill="#1a1a2e" d="
    M110 360
    C150 330 186 285 220 240
    C252 197 286 160 330 132
    C364 110 402 110 430 128
    C450 140 462 160 462 182
    C462 206 448 222 430 232
    C456 236 476 250 486 270
    C496 290 494 316 478 334
    C464 350 440 356 416 350
    C402 346 390 338 382 328
    C376 360 366 388 348 412
    C324 444 286 462 240 466
    C204 470 172 464 144 454
    L144 468
    C144 478 136 486 126 486
    C116 486 108 478 108 468
    L108 438
    C92 428 78 416 66 402
    C56 390 54 372 64 360
    C74 348 92 346 110 360
    Z

    M238 466
    C280 458 312 440 332 412
    C350 388 358 356 362 320
    C364 300 380 290 396 292
    C416 294 428 308 430 326
    C432 340 440 350 452 354
    C466 360 482 350 486 334
    C492 318 486 296 472 284
    C458 270 436 266 416 270
    C400 274 386 262 388 246
    C390 232 404 228 418 224
    C438 218 450 204 450 184
    C450 166 440 152 424 144
    C402 132 372 134 346 150
    C306 176 276 214 248 252
    C214 298 176 346 132 382
    C112 398 90 388 82 380
    C74 372 78 360 92 356
    C108 352 110 336 96 330
    C78 322 58 334 54 356
    C50 378 60 400 78 418
    C106 446 154 476 238 466
    Z

    <!-- Throat 'beard' notch cluster (minimal jagged silhouette) -->
    M348 238
    L332 262
    L348 286
    L326 304
    L344 320
    L314 334
    L330 350
    L302 360
    L320 376
    L292 382
    L312 402
    L280 404
    L300 430
    L260 424
    L274 450
    L238 436
    L242 466
    L226 466
    L228 438
    L210 446
    L210 420
    L236 418
    L236 404
    C264 400 288 394 306 384
    C330 370 344 350 350 322
    C356 292 356 268 348 238
    Z

    <!-- Wedge tail emphasis -->
    M144 454
    L92 474
    L112 430
    Z
  "/>

  <!-- Single accent: teal eye -->
  <circle cx="382" cy="176" r="12" fill="#4ecdc4"/>
</svg>