<svg xmlns="http://www.w3.org/2000/svg" viewBox="0 0 512 512" role="img" aria-label="Korpen raven silhouette">
  <path d="M204.0 437.4 L206.1 430.6 L214.0 423.3 L222.9 420.9 L236.5 422.1 L252.1 423.9 L267.9 425.4 L286.8 426.5 L309.4 427.8 L332.3 429.1 L354.8 430.9 L372.7 430.9 L390.6 430.9 L405.1 430.8 L414.0 430.8 L425.9 430.7 L436.6 430.6 L445.5 430.5 L452.4 430.5 L460.2 430.4 L469.1 430.3 L478.8 430.1 L476.1 426.2 L468.3 417.4 L459.1 410.3 L449.5 404.8 L439.9 402.2 L433.0 402.1 L425.0 402.1 L417.4 402.0 L411.8 402.0 L406.3 401.9 L399.6 401.8 L393.0 401.7 L386.7 401.7 L382.4 401.6 L377.7 401.5 L372.9 401.5 L367.6 401.4 L361.6 401.3 L355.4 401.1 L350.9 400.8 L347.0 400.3 L343.3 399.7 L340.2 399.0 L337.3 398.3 L334.0 397.3 L329.3 396.0 L324.6 394.8 L320.8 393.6 L318.1 392.5 L315.3 391.2 L311.6 389.4 L307.7 387.3 L303.5 384.9 L299.2 382.1 L294.9 378.8 L291.0 375.4 L287.6 371.8 L284.4 367.6 L281.3 362.5 L278.4 356.5 L275.8 349.4 L273.3 341.5 L270.8 332.3 L268.2 321.9 L265.4 310.1 L262.4 296.7 L259.0 281.8 L255.1 265.2 L250.4 246.7 L240.0 246.7 L222.5 252.0 L203.8 260.4 L185.6 270.9 L169.1 282.8 L155.0 295.7 L143.0 309.0 L133.0 321.9 L124.2 334.2 L116.1 346.1 L108.7 357.6 L101.7 368.7 L95.0 379.4 L88.8 389.9 L83.1 400.2 L78.0 410.3 L73.4 420.0 L69.2 429.0 L65.5 436.9 L62.2 443.9 L59.1 450.4 L55.9 456.6 L51.3 465.0 L44.6 476.4 L42.9 479.4 L39.3 485.5 L36.2 490.8 L34.0 494.7 L32.6 497.4 L32.6 502.2 L39.3 505.8 L50.7 506.5 L65.8 504.7 L82.3 500.6 L98.3 494.5 L112.6 487.0 L125.0 478.3 L135.6 468.5 L145.0 457.9 L153.6 446.2 L162.1 433.9 L171.0 421.0 L180.3 407.5 L190.3 393.2 L201.4 378.0 L214.0 361.6 L226.8 345.5 L239.6 330.0 L252.3 315.5 L265.1 302.0 L278.1 289.2 L291.7 276.8 L306.2 265.1 L321.9 254.2 L338.4 244.6 L355.5 237.3 L372.9 233.0 L390.4 232.4 L407.5 236.0 L423.9 244.0 L438.8 256.1 L451.9 271.4 L462.8 288.1 L471.3 305.1 L477.4 320.2 L480.4 331.9 L480.6 340.7 L479.0 347.8 L475.4 354.4 L469.5 361.3 L461.4 369.2 L451.7 376.9 L441.3 383.4 L431.4 387.6 L423.5 388.8 L417.1 387.8 L411.2 384.9 L404.5 379.2 L397.1 370.7 L389.8 359.4 L383.2 345.4 L377.6 329.3 L373.3 311.6 L370.5 292.7 L369.7 273.6 L371.1 256.2 L374.8 241.5 L381.2 229.5 L390.6 220.0 L402.1 213.0 L414.3 208.6 L425.4 206.1 L433.4 204.7 L439.2 202.9 L443.3 200.1 L445.9 196.6 L446.5 192.2 L444.6 187.8 L439.8 183.0 L432.0 177.9 L421.6 172.7 L409.5 167.9 L397.0 164.3 L385.2 161.8 L375.1 160.1 L367.1 159.2 L361.5 158.8 L358.1 158.7 L356.2 158.7 L352.5 158.8 L346.9 159.4 L339.2 160.9 L329.6 163.8 L318.7 168.4 L307.6 174.9 L297.2 183.2 L288.0 193.0 L280.1 204.0 L273.8 215.5 L269.0 227.0 L265.6 238.5 L263.2 249.9 L260.6 261.3 L256.9 272.6 L251.8 283.6 L244.9 294.5 L235.9 305.3 L225.0 315.7 L212.6 325.4 L199.0 333.8 L184.4 340.5 L169.7 345.0 L155.7 347.2 L142.9 347.4 L132.0 345.9 L123.6 342.7 L117.6 337.5 L114.2 330.9 L113.8 323.7 L115.4 316.8 L119.4 309.1 L126.4 300.5 L136.6 291.0 L150.2 281.0 L166.8 271.5 L186.1 263.4 L206.7 257.5 L227.5 254.5 L246.9 254.1 L263.9 255.3 L277.7 257.1 L288.0 259.0 L295.5 261.2 L301.3 263.9 L306.1 267.4 L311.0 272.3 L316.1 278.9 L321.4 287.7 L326.6 298.4 L331.1 310.4 L334.5 322.9 L336.3 334.7 L336.3 344.7 L334.3 352.8 L330.3 360.1 L324.5 366.8 L317.1 372.8 L308.3 377.9 L298.3 382.0 L287.8 384.8 L277.3 386.2 L267.6 386.6 L259.6 386.4 L252.9 385.7 L246.8 384.6 L240.4 382.9 L233.7 380.5 L226.4 377.0 L218.5 372.3 L210.0 366.2 L201.7 358.6 L194.1 349.7 L187.1 339.8 L181.0 329.3 L175.8 318.4 L171.5 307.2 L168.0 296.0 L165.1 284.6 L162.7 272.8 L160.5 260.1 L158.0 246.7 L154.8 231.5 L150.7 213.5 L144.9 191.1 L135.9 163.2 L126.7 163.2 L112.5 166.9 L97.9 173.4 L83.5 181.9 L70.0 192.0 L58.2 202.9 L48.7 214.1 L41.4 225.2 L35.8 235.7 L31.7 245.2 L29.0 253.2 L27.5 259.5 L26.7 264.0 L26.4 266.8 L26.3 268.3 L26.2 270.7 L26.2 274.5 L26.2 279.7 L26.3 286.0 L26.3 292.8 L26.4 299.4 L26.4 305.1 L26.5 309.5 L26.5 312.4 L26.5 313.6 L26.5 316.4 L27.2 320.7 L29.1 326.4 L32.3 333.0 L36.7 340.0 L42.2 346.9 L48.6 353.1 L55.8 358.4 L63.4 362.5 L70.9 365.0 L77.7 365.6 L83.6 364.6 L88.5 362.1 L92.7 358.1 L96.3 352.8 L99.5 346.0 L102.7 337.2 L106.1 326.3 L110.0 313.1 L114.4 297.5 L119.5 279.6 L125.2 259.6 L131.6 237.9 L139.0 214.7 L149.0 184.3 L162.7 148.1 L177.8 111.8 L190.9 85.2 L199.9 68.5 L204.5 60.6 L208.4 55.1 L212.2 52.0 L216.7 50.5 L222.2 51.0 L228.4 53.8 L234.8 59.0 L240.5 66.3 L244.9 75.2 L247.1 84.8 L246.7 94.0 L244.0 102.8 L239.7 110.4 L234.8 116.5 L230.2 121.0 L226.8 123.8 L224.7 125.2 L223.4 125.6 L224.2 129.1 L229.9 136.2 L240.4 146.1 L254.1 156.2 L268.0 163.9 L280.1 169.0 L289.4 172.0 L295.8 173.6 L300.3 174.3 L304.0 174.4 L307.8 173.8 L312.3 172.5 L317.1 170.6 L321.6 168.4 L325.5 166.2 L328.4 164.4 L330.1 163.5 L332.5 162.9 L336.5 162.6 L341.4 162.6 L346.0 162.9 L349.7 163.2 L352.2 163.5 L353.4 163.7 L354.6 164.0 L356.5 164.7 L358.9 165.9 L361.4 167.6 L363.8 169.7 L366.0 172.2 L368.0 175.0 L369.6 178.2 L370.7 181.6 L371.0 185.2 L370.4 188.9 L368.5 192.6 L365.4 196.1 L361.0 199.4 L355.3 202.3 L348.5 204.9 L341.2 207.2 L334.2 209.4 L327.9 211.6 L322.3 214.1 L317.3 217.2 L312.7 221.1 L308.4 226.0 L304.1 232.1 L299.7 239.5 L295.1 248.1 L290.4 257.8 L285.5 268.6 L280.4 280.3 L274.8 292.8 L268.3 306.0 L260.8 319.9 L252.4 334.5 L243.7 348.9 L235.5 361.5 L229.5 370.5 L226.0 375.5 L223.6 378.6 L221.4 381.7 L218.5 385.9 L215.3 391.1 L212.1 396.8 L209.2 402.6 L206.7 408.5 L204.9 414.3 L204.0 419.7 L203.7 424.5 L203.9 428.7 L204.0 431.7 L204.0 437.4 Z" fill="#1a1a2e"/>
  <circle cx="381.5" cy="102.8" r="8.3" fill="#4ecdc4"/>
</svg>